<svg width="500" height="500" viewBox="0 0 500 500" fill="none" xmlns="http://www.w3.org/2000/svg">
<mask id="mask0_309_4" style="mask-type:alpha" maskUnits="userSpaceOnUse" x="0" y="0" width="500" height="500">
<rect width="500" height="500" fill="#D9D9D9"/>
</mask>
<g mask="url(#mask0_309_4)">
<path d="M153.6 123.5H259.8C286.6 123.5 307.4 130 322.2 143C337.2 156 344.7 173.8 344.7 196.4C344.7 205.4 342 214.2 336.6 222.8C331.2 231.2 324.4 236.9 316.2 239.9C327.8 243.7 337.3 250.7 344.7 260.9C352.3 270.9 356.1 281.9 356.1 293.9C356.1 308.9 352.6 322 345.6 333.2C338.8 344.4 328.8 353 315.6 359C302.4 365 286.8 368 268.8 368H153.6V123.5ZM257.4 222.5C267.8 222.5 275.8 220.3 281.4 215.9C287.2 211.3 290.1 204.8 290.1 196.4C290.1 187.8 287.2 181.3 281.4 176.9C275.8 172.3 267.8 170 257.4 170H208.2V222.5H257.4ZM266.4 321.5C277.4 321.5 286 319.1 292.2 314.3C298.4 309.5 301.5 302.7 301.5 293.9C301.5 285.1 298.4 278.3 292.2 273.5C286 268.7 277.4 266.3 266.4 266.3H208.2V321.5H266.4Z" fill="white"/>
</g>
</svg>
